<svg width="19" height="19" viewBox="0 0 19 19" fill="none" xmlns="http://www.w3.org/2000/svg">
<path d="M9.5 0C7.62108 0 5.78435 0.557165 4.22209 1.60104C2.65982 2.64491 1.44218 4.12861 0.723149 5.86451C0.00411622 7.60041 -0.184015 9.51054 0.182544 11.3534C0.549104 13.1962 1.45389 14.8889 2.78249 16.2175C4.11109 17.5461 5.80383 18.4509 7.64665 18.8175C9.48947 19.184 11.3996 18.9959 13.1355 18.2769C14.8714 17.5578 16.3551 16.3402 17.399 14.7779C18.4428 13.2157 19 11.3789 19 9.5C18.9973 6.98128 17.9955 4.5665 16.2145 2.78549C14.4335 1.00449 12.0187 0.00272419 9.5 0ZM9.5 17.4167C7.93424 17.4167 6.40363 16.9524 5.10174 16.0825C3.79985 15.2126 2.78515 13.9762 2.18596 12.5296C1.58676 11.083 1.42999 9.49122 1.73545 7.95554C2.04092 6.41985 2.79491 5.00924 3.90208 3.90207C5.00924 2.79491 6.41986 2.04092 7.95554 1.73545C9.49122 1.42998 11.083 1.58676 12.5296 2.18595C13.9762 2.78515 15.2126 3.79985 16.0825 5.10174C16.9524 6.40363 17.4167 7.93423 17.4167 9.5C17.4144 11.5989 16.5795 13.6112 15.0954 15.0954C13.6112 16.5795 11.5989 17.4144 9.5 17.4167ZM11.0833 9.5C11.0846 9.77823 11.0125 10.0519 10.8743 10.2934C10.7362 10.5349 10.5368 10.7357 10.2963 10.8757C10.0558 11.0156 9.78273 11.0897 9.5045 11.0905C9.22627 11.0913 8.95274 11.0187 8.71146 10.8802C8.47019 10.7416 8.26969 10.5419 8.13016 10.3012C7.99064 10.0604 7.91701 9.78719 7.91669 9.50896C7.91637 9.23072 7.98938 8.95732 8.12836 8.71628C8.26734 8.47524 8.46738 8.27508 8.70834 8.13596V5.54167C8.70834 5.3317 8.79175 5.13034 8.94021 4.98187C9.08868 4.83341 9.29004 4.75 9.5 4.75C9.70997 4.75 9.91133 4.83341 10.0598 4.98187C10.2083 5.13034 10.2917 5.3317 10.2917 5.54167V8.13596C10.5316 8.27395 10.7311 8.47261 10.8701 8.71203C11.009 8.95144 11.0826 9.22319 11.0833 9.5Z" fill="#D9D9D9"/>
</svg>
