<svg width="6" height="11" viewBox="0 0 6 11" fill="none" xmlns="http://www.w3.org/2000/svg">
<path d="M0.247421 0.228455C0.169022 0.301489 0.106794 0.388379 0.0643287 0.484116C0.0218632 0.579851 0 0.682537 0 0.786248C0 0.88996 0.0218632 0.992645 0.0643287 1.08838C0.106794 1.18412 0.169022 1.27101 0.247421 1.34404L4.07837 4.94221C4.15677 5.01524 4.219 5.10213 4.26146 5.19787C4.30393 5.2936 4.32579 5.39629 4.32579 5.5C4.32579 5.60371 4.30393 5.7064 4.26146 5.80213C4.219 5.89787 4.15677 5.98476 4.07837 6.05779L0.247421 9.65596C0.169022 9.72899 0.106794 9.81588 0.0643287 9.91162C0.0218632 10.0074 0 10.11 0 10.2138C0 10.3175 0.0218632 10.4201 0.0643287 10.5159C0.106794 10.6116 0.169022 10.6985 0.247421 10.7715C0.404141 10.9179 0.616141 11 0.837119 11C1.0581 11 1.2701 10.9179 1.42682 10.7715L5.26613 7.16553C5.73605 6.72361 6 6.12457 6 5.5C6 4.87543 5.73605 4.27639 5.26613 3.83447L1.42682 0.228455C1.2701 0.0821314 1.0581 0 0.837119 0C0.616141 0 0.404141 0.0821314 0.247421 0.228455Z" fill="#D9D9D9"/>
</svg>
