<svg width="18" height="18" viewBox="0 0 18 18" fill="none" xmlns="http://www.w3.org/2000/svg">
<g clip-path="url(#clip0_23_66)">
<path d="M15 3.039C13.2441 1.48946 10.9534 0.685324 8.61428 0.797345C6.27515 0.909367 4.07179 1.92872 2.47205 3.63896C0.872304 5.34921 0.00217221 7.61565 0.0464074 9.95705C0.0906427 12.2984 1.04576 14.5304 2.70896 16.179C3.41127 16.8677 4.35634 17.2524 5.33996 17.25H12.6652C13.5966 17.2627 14.4972 16.9168 15.1807 16.284C16.0799 15.4256 16.7924 14.3909 17.2736 13.2446C17.7548 12.0984 17.9944 10.8652 17.9775 9.6221C17.9605 8.37904 17.6873 7.15284 17.175 6.02014C16.6627 4.88744 15.9223 3.87258 15 3.039ZM14.151 15.1943C13.7448 15.5624 13.2133 15.7613 12.6652 15.75H5.33996C4.74837 15.7519 4.17985 15.5207 3.75746 15.1065C2.68758 14.0608 1.95489 12.719 1.65357 11.2536C1.35224 9.78822 1.49605 8.2662 2.0665 6.88318C2.63696 5.50016 3.608 4.31935 4.8548 3.49252C6.1016 2.66569 7.56719 2.23063 9.06318 2.24326C10.5592 2.25589 12.0172 2.71563 13.2499 3.5634C14.4825 4.41116 15.4335 5.6082 15.9805 7.00065C16.5275 8.3931 16.6456 9.91734 16.3196 11.3774C15.9936 12.8375 15.2383 14.1667 14.151 15.1943ZM14.301 9.7425C14.2035 9.7565 14.1041 9.75115 14.0087 9.72676C13.9133 9.70238 13.8236 9.65943 13.7447 9.60037C13.6659 9.54131 13.5994 9.46729 13.5492 9.38255C13.499 9.29782 13.4659 9.20401 13.452 9.1065C13.294 8.03736 12.758 7.06029 11.9411 6.35268C11.1242 5.64507 10.0807 5.25383 8.99996 5.25C5.04896 5.175 2.96996 10.2645 5.85521 12.9637C5.99743 13.103 6.07852 13.293 6.08063 13.492C6.08274 13.6911 6.0057 13.8828 5.86646 14.025C5.72722 14.1672 5.53719 14.2483 5.33816 14.2504C5.13914 14.2525 4.94743 14.1755 4.80521 14.0363C0.96521 10.386 3.70421 3.68625 8.99996 3.75C10.4415 3.75526 11.8334 4.27708 12.923 5.22078C14.0127 6.16447 14.7281 7.46752 14.9392 8.8935C14.9532 8.99106 14.9478 9.09043 14.9234 9.18591C14.899 9.2814 14.8559 9.37113 14.7968 9.44998C14.7377 9.52883 14.6636 9.59525 14.5787 9.64544C14.4939 9.69563 14.4 9.72861 14.3025 9.7425H14.301ZM14.526 12.1755C14.4864 12.2657 14.4294 12.3473 14.3583 12.4155C14.2872 12.4837 14.2034 12.5373 14.1116 12.5731C14.0198 12.6089 13.9218 12.6262 13.8233 12.6242C13.7248 12.6221 13.6277 12.6006 13.5375 12.561L9.88721 10.959C9.62149 11.1551 9.29849 11.258 8.96831 11.2518C8.63814 11.2456 8.31924 11.1306 8.06109 10.9246C7.80294 10.7187 7.61996 10.4333 7.54055 10.1128C7.46114 9.79221 7.48974 9.45441 7.62189 9.15177C7.75405 8.84913 7.98239 8.59857 8.27148 8.43894C8.56057 8.27931 8.89426 8.21954 9.22079 8.26891C9.54731 8.31828 9.84842 8.47403 10.0774 8.71199C10.3064 8.94995 10.4504 9.25682 10.4872 9.585L14.1375 11.187C14.228 11.2262 14.31 11.2829 14.3786 11.3539C14.4472 11.4248 14.5011 11.5086 14.5373 11.6004C14.5734 11.6923 14.5911 11.7903 14.5893 11.889C14.5875 11.9877 14.5655 12.0851 14.526 12.1755Z" fill="#D9D9D9"/>
</g>
<defs>
<clipPath id="clip0_23_66">
<rect width="18" height="18" fill="white"/>
</clipPath>
</defs>
</svg>
