<svg width="27" height="27" viewBox="0 0 27 27" fill="none" xmlns="http://www.w3.org/2000/svg">
<path d="M20.0476 10.7418C20.0322 9.89711 19.6888 9.09151 19.09 8.49545L17.7052 7.11226C17.6023 7.01287 17.4645 6.95787 17.3214 6.95912C17.1784 6.96036 17.0415 7.01775 16.9403 7.11891C16.8392 7.22008 16.7818 7.35693 16.7805 7.49999C16.7793 7.64305 16.8343 7.78088 16.9337 7.88379L17.8651 8.81519V10.2262C17.8651 10.5156 17.9801 10.7932 18.1847 10.9978C18.3894 11.2025 18.6669 11.3175 18.9564 11.3175V16.7738C18.9564 16.9185 18.8989 17.0573 18.7965 17.1596C18.6942 17.262 18.5554 17.3195 18.4107 17.3195C18.266 17.3195 18.1272 17.262 18.0249 17.1596C17.9226 17.0573 17.8651 16.9185 17.8651 16.7738V16.2282C17.8651 15.7941 17.6926 15.3777 17.3857 15.0707C17.0787 14.7637 16.6623 14.5913 16.2282 14.5913H15.6826V9.68057C15.6817 8.95728 15.394 8.26386 14.8825 7.75241C14.3711 7.24097 13.6777 6.95326 12.9544 6.95239H9.68057C8.95728 6.95326 8.26386 7.24097 7.75241 7.75241C7.24097 8.26386 6.95326 8.95728 6.95239 9.68057L6.95239 17.3195C6.95326 18.0427 7.24097 18.7362 7.75241 19.2476C8.26386 19.7591 8.95728 20.0468 9.68057 20.0476H12.9544C13.6777 20.0468 14.3711 19.7591 14.8825 19.2476C15.394 18.7362 15.6817 18.0427 15.6826 17.3195V15.6826H16.2282C16.3729 15.6826 16.5117 15.74 16.614 15.8424C16.7163 15.9447 16.7738 16.0835 16.7738 16.2282V16.7738C16.7738 17.208 16.9463 17.6243 17.2533 17.9313C17.5602 18.2383 17.9766 18.4107 18.4107 18.4107C18.8449 18.4107 19.2612 18.2383 19.5682 17.9313C19.8752 17.6243 20.0476 17.208 20.0476 16.7738C20.0476 16.7738 20.0476 10.7516 20.0476 10.7418ZM9.68057 8.04366H12.9544C13.3885 8.04366 13.8049 8.21612 14.1118 8.5231C14.4188 8.83008 14.5913 9.24643 14.5913 9.68057V11.8631H8.04366V9.68057C8.04366 9.24643 8.21612 8.83008 8.5231 8.5231C8.83008 8.21612 9.24643 8.04366 9.68057 8.04366ZM14.5913 17.3195C14.5913 17.7536 14.4188 18.1699 14.1118 18.4769C13.8049 18.7839 13.3885 18.9564 12.9544 18.9564H9.68057C9.24643 18.9564 8.83008 18.7839 8.5231 18.4769C8.21612 18.1699 8.04366 17.7536 8.04366 17.3195V12.9544H14.5913V17.3195Z" fill="#DFDFDF"/>
<circle cx="13.5" cy="13.5" r="13" stroke="white"/>
</svg>
