<svg width="12" height="19" viewBox="0 0 12 19" fill="none" xmlns="http://www.w3.org/2000/svg">
<path d="M6.03838 19H3.31826L4.73241 12.6667H1.81007C1.52765 12.6665 1.24917 12.5924 0.996881 12.4503C0.744596 12.3082 0.525501 12.1019 0.357105 11.8481C0.188708 11.5942 0.0756784 11.2998 0.0270475 10.9883C-0.0215834 10.6768 -0.00446703 10.3569 0.0770287 10.0542L2.7929 0H9.48678L7.36555 6.33333H10.2101C10.5338 6.33356 10.8513 6.43198 11.129 6.61811C11.4067 6.80424 11.6341 7.07114 11.7871 7.39044C11.9402 7.70973 12.0131 8.06948 11.9981 8.43145C11.9831 8.79343 11.8808 9.14409 11.702 9.44617L6.03838 19ZM5.12978 17.4167H5.27968L10.5234 8.57058C10.5609 8.50715 10.5824 8.43349 10.5856 8.35746C10.5888 8.28143 10.5735 8.20585 10.5413 8.13877C10.5092 8.0717 10.4614 8.01562 10.4031 7.97651C10.3448 7.9374 10.2781 7.91672 10.2101 7.91667H5.32494L7.44616 1.58333H3.8422L1.43037 10.5102C1.41237 10.5765 1.4085 10.6467 1.41909 10.7151C1.42967 10.7834 1.45442 10.8481 1.49133 10.9038C1.52824 10.9595 1.5763 11.0048 1.63165 11.036C1.687 11.0671 1.74811 11.0834 1.81007 11.0833H6.54747L5.12978 17.4167Z" fill="#DFDFDF"/>
</svg>
