<svg width="27" height="27" viewBox="0 0 27 27" fill="none" xmlns="http://www.w3.org/2000/svg">
<circle cx="13.5" cy="13.5" r="13" stroke="white"/>
<path d="M5.37 13.51C5.37 12.83 5.52667 12.22 5.84 11.68C6.16 11.14 6.59 10.72 7.13 10.42C7.67667 10.1133 8.27333 9.96 8.92 9.96C9.66 9.96 10.3167 10.1433 10.89 10.51C11.47 10.87 11.89 11.3833 12.15 12.05H10.78C10.6 11.6833 10.35 11.41 10.03 11.23C9.71 11.05 9.34 10.96 8.92 10.96C8.46 10.96 8.05 11.0633 7.69 11.27C7.33 11.4767 7.04667 11.7733 6.84 12.16C6.64 12.5467 6.54 12.9967 6.54 13.51C6.54 14.0233 6.64 14.4733 6.84 14.86C7.04667 15.2467 7.33 15.5467 7.69 15.76C8.05 15.9667 8.46 16.07 8.92 16.07C9.34 16.07 9.71 15.98 10.03 15.8C10.35 15.62 10.6 15.3467 10.78 14.98H12.15C11.89 15.6467 11.47 16.16 10.89 16.52C10.3167 16.88 9.66 17.06 8.92 17.06C8.26667 17.06 7.67 16.91 7.13 16.61C6.59 16.3033 6.16 15.88 5.84 15.34C5.52667 14.8 5.37 14.19 5.37 13.51ZM16.6544 17.07C16.0077 17.07 15.411 16.92 14.8644 16.62C14.3244 16.3133 13.8944 15.89 13.5744 15.35C13.261 14.8033 13.1044 14.19 13.1044 13.51C13.1044 12.83 13.261 12.22 13.5744 11.68C13.8944 11.14 14.3244 10.72 14.8644 10.42C15.411 10.1133 16.0077 9.96 16.6544 9.96C17.3077 9.96 17.9044 10.1133 18.4444 10.42C18.991 10.72 19.421 11.14 19.7344 11.68C20.0477 12.22 20.2044 12.83 20.2044 13.51C20.2044 14.19 20.0477 14.8033 19.7344 15.35C19.421 15.89 18.991 16.3133 18.4444 16.62C17.9044 16.92 17.3077 17.07 16.6544 17.07ZM16.6544 16.08C17.1144 16.08 17.5244 15.9767 17.8844 15.77C18.2444 15.5567 18.5244 15.2567 18.7244 14.87C18.931 14.4767 19.0344 14.0233 19.0344 13.51C19.0344 12.9967 18.931 12.5467 18.7244 12.16C18.5244 11.7733 18.2444 11.4767 17.8844 11.27C17.5244 11.0633 17.1144 10.96 16.6544 10.96C16.1944 10.96 15.7844 11.0633 15.4244 11.27C15.0644 11.4767 14.781 11.7733 14.5744 12.16C14.3744 12.5467 14.2744 12.9967 14.2744 13.51C14.2744 14.0233 14.3744 14.4767 14.5744 14.87C14.781 15.2567 15.0644 15.5567 15.4244 15.77C15.7844 15.9767 16.1944 16.08 16.6544 16.08Z" fill="white"/>
<path d="M21.132 18.372C21.3907 18.1693 21.6027 17.9947 21.768 17.848C21.9333 17.7013 22.072 17.5507 22.184 17.396C22.296 17.2387 22.352 17.0893 22.352 16.948C22.352 16.8627 22.332 16.796 22.292 16.748C22.2547 16.7 22.1987 16.676 22.124 16.676C22.0467 16.676 21.9867 16.7093 21.944 16.776C21.9013 16.84 21.8813 16.9347 21.884 17.06H21.124C21.132 16.8227 21.184 16.6267 21.28 16.472C21.376 16.3147 21.5013 16.2 21.656 16.128C21.8107 16.0533 21.9827 16.016 22.172 16.016C22.5 16.016 22.744 16.0973 22.904 16.26C23.064 16.4227 23.144 16.6333 23.144 16.892C23.144 17.1693 23.0507 17.4293 22.864 17.672C22.68 17.9147 22.4493 18.132 22.172 18.324H23.172V18.96H21.132V18.372Z" fill="white"/>
</svg>
